<svg width="60" height="60" viewBox="0 0 60 60" fill="none" xmlns="http://www.w3.org/2000/svg">
<rect width="60" height="60" rx="14" fill="#F4F9FD"/>
<path d="M28.6781 16.5977C29.4311 16.5977 30.0422 17.208 30.0424 17.9609C30.0424 18.6603 29.5155 19.2367 28.8373 19.3154L28.6781 19.3252H23.182C21.0034 19.3252 19.2224 21.0283 19.098 23.1758L19.0912 23.416V37.0518C19.0912 39.2304 20.7943 41.0113 22.9418 41.1357L23.182 41.1426H36.8177C38.9962 41.1426 40.7771 39.4402 40.9017 37.293L40.9095 37.0518V30.3457C40.9095 29.5926 41.5197 28.9814 42.2728 28.9814C42.9721 28.9815 43.5486 29.5084 43.6273 30.1865L43.6361 30.3457V37.0518C43.6361 40.7182 40.742 43.7094 37.1136 43.8643L36.8177 43.8701H23.182C19.5155 43.8701 16.5244 40.976 16.3695 37.3477L16.3636 37.0518V23.416C16.3636 19.7495 19.2577 16.7584 22.8861 16.6035L23.182 16.5977H28.6781ZM36.6527 16.1982C38.2503 14.6007 40.8403 14.6008 42.4379 16.1982L44.0355 17.7959C45.6331 19.3935 45.6331 21.9835 44.0355 23.5811L32.3275 35.2891C32.0718 35.5447 31.7252 35.6884 31.3636 35.6885H25.9086C25.1558 35.6882 24.5455 35.078 24.5453 34.3252V28.8701C24.5453 28.5086 24.6891 28.1619 24.9447 27.9062L36.6527 16.1982ZM40.5092 18.127C39.9766 17.5946 39.1139 17.5945 38.5814 18.127L27.2728 29.4346V32.9609H30.7963L42.1068 21.6523C42.5983 21.1608 42.636 20.3875 42.2201 19.8525L42.1068 19.7246L40.5092 18.127Z" fill="#0A1629"/>
</svg>
