<svg width="321" height="82" viewBox="0 0 321 82" fill="none" xmlns="http://www.w3.org/2000/svg">
<g filter="url(#filter0_d_1_358)">
<rect x="4.69855" y="0.0979004" width="311.483" height="73.6957" rx="4" fill="white"/>
</g>
<path d="M122.747 38.75V21.95H125.867V36.11H134.651V38.75H122.747ZM144.681 38.99C143.369 38.99 142.161 38.774 141.057 38.342C139.953 37.91 138.993 37.31 138.177 36.542C137.361 35.758 136.729 34.846 136.281 33.806C135.833 32.75 135.609 31.598 135.609 30.35C135.609 29.102 135.833 27.958 136.281 26.918C136.729 25.862 137.361 24.95 138.177 24.182C138.993 23.398 139.953 22.79 141.057 22.358C142.161 21.926 143.361 21.71 144.657 21.71C145.969 21.71 147.169 21.926 148.257 22.358C149.361 22.79 150.321 23.398 151.137 24.182C151.953 24.95 152.585 25.862 153.033 26.918C153.481 27.958 153.705 29.102 153.705 30.35C153.705 31.598 153.481 32.75 153.033 33.806C152.585 34.862 151.953 35.774 151.137 36.542C150.321 37.31 149.361 37.91 148.257 38.342C147.169 38.774 145.977 38.99 144.681 38.99ZM144.657 36.254C145.505 36.254 146.289 36.11 147.009 35.822C147.729 35.534 148.353 35.126 148.881 34.598C149.409 34.054 149.817 33.43 150.105 32.726C150.409 32.006 150.561 31.214 150.561 30.35C150.561 29.486 150.409 28.702 150.105 27.998C149.817 27.278 149.409 26.654 148.881 26.126C148.353 25.582 147.729 25.166 147.009 24.878C146.289 24.59 145.505 24.446 144.657 24.446C143.809 24.446 143.025 24.59 142.305 24.878C141.601 25.166 140.977 25.582 140.433 26.126C139.905 26.654 139.489 27.278 139.185 27.998C138.897 28.702 138.753 29.486 138.753 30.35C138.753 31.198 138.897 31.982 139.185 32.702C139.489 33.422 139.905 34.054 140.433 34.598C140.961 35.126 141.585 35.534 142.305 35.822C143.025 36.11 143.809 36.254 144.657 36.254ZM164.861 38.99C163.549 38.99 162.341 38.782 161.237 38.366C160.149 37.934 159.197 37.334 158.381 36.566C157.565 35.782 156.933 34.862 156.485 33.806C156.037 32.75 155.813 31.598 155.813 30.35C155.813 29.102 156.037 27.95 156.485 26.894C156.933 25.838 157.565 24.926 158.381 24.158C159.213 23.374 160.181 22.774 161.285 22.358C162.389 21.926 163.597 21.71 164.909 21.71C166.333 21.71 167.613 21.942 168.749 22.406C169.901 22.87 170.869 23.55 171.653 24.446L169.685 26.366C169.029 25.71 168.317 25.23 167.549 24.926C166.797 24.606 165.965 24.446 165.053 24.446C164.173 24.446 163.357 24.59 162.605 24.878C161.853 25.166 161.205 25.574 160.661 26.102C160.117 26.63 159.693 27.254 159.389 27.974C159.101 28.694 158.957 29.486 158.957 30.35C158.957 31.198 159.101 31.982 159.389 32.702C159.693 33.422 160.117 34.054 160.661 34.598C161.205 35.126 161.845 35.534 162.581 35.822C163.317 36.11 164.133 36.254 165.029 36.254C165.861 36.254 166.661 36.126 167.429 35.87C168.213 35.598 168.957 35.15 169.661 34.526L171.437 36.854C170.557 37.558 169.533 38.094 168.365 38.462C167.213 38.814 166.045 38.99 164.861 38.99ZM168.485 36.446V30.158H171.437V36.854L168.485 36.446ZM175.552 38.75V21.95H178.672V38.75H175.552ZM183.216 38.75V21.95H185.784L196.32 34.886H195.048V21.95H198.144V38.75H195.576L185.04 25.814H186.312V38.75H183.216Z" fill="#2148C0"/>
<defs>
<filter id="filter0_d_1_358" x="0.698547" y="0.0979004" width="319.483" height="81.6956" filterUnits="userSpaceOnUse" color-interpolation-filters="sRGB">
<feFlood flood-opacity="0" result="BackgroundImageFix"/>
<feColorMatrix in="SourceAlpha" type="matrix" values="0 0 0 0 0 0 0 0 0 0 0 0 0 0 0 0 0 0 127 0" result="hardAlpha"/>
<feOffset dy="4"/>
<feGaussianBlur stdDeviation="2"/>
<feColorMatrix type="matrix" values="0 0 0 0 0 0 0 0 0 0 0 0 0 0 0 0 0 0 0.3 0"/>
<feBlend mode="normal" in2="BackgroundImageFix" result="effect1_dropShadow_1_358"/>
<feBlend mode="normal" in="SourceGraphic" in2="effect1_dropShadow_1_358" result="shape"/>
</filter>
</defs>
</svg>
