<svg width="24" height="24" viewBox="0 0 24 24" fill="none" xmlns="http://www.w3.org/2000/svg">
<path d="M19.5063 15.1309C19.9864 14.8581 20.5967 15.0259 20.8696 15.5059C21.123 15.9517 20.996 16.5097 20.5923 16.8057L20.4946 16.8691L13.8999 20.6172C13.0701 21.093 12.0575 21.1251 11.1997 20.7129L11.0181 20.6182L4.50146 16.8672C4.02282 16.5917 3.85777 15.9796 4.1333 15.501C4.38918 15.0566 4.93522 14.883 5.39502 15.0811L5.49951 15.1338L12.0122 18.8828C12.2524 19.0198 12.5458 19.0371 12.8013 18.9326L12.9087 18.8799L19.5063 15.1309ZM19.603 11.4707C20.0832 11.1978 20.6934 11.3665 20.9663 11.8467C21.2196 12.2925 21.0928 12.8506 20.689 13.1465L20.5913 13.21L13.9966 16.957C13.1668 17.4328 12.1542 17.4659 11.2964 17.0537L11.1147 16.958L4.59814 13.207C4.11961 12.9315 3.95552 12.3204 4.23096 11.8418C4.48678 11.3974 5.03188 11.2229 5.4917 11.4209L5.59619 11.4736L12.1099 15.2227C12.35 15.3596 12.6426 15.3768 12.8979 15.2725L13.0054 15.2207L19.603 11.4707ZM10.9575 2.63672C11.5974 2.24607 12.4026 2.24607 13.0425 2.63672L19.1587 6.37012C20.4463 7.15633 20.4328 9.03097 19.1343 9.79883L13.0405 13.4004C12.4143 13.7704 11.6363 13.771 11.0093 13.4023L4.87744 9.79688C3.57502 9.03107 3.55957 7.1535 4.84912 6.36621L10.9575 2.63672Z" fill="#7D8592"/>
</svg>
