<svg width="60" height="60" viewBox="0 0 60 60" fill="none" xmlns="http://www.w3.org/2000/svg">
<path d="M48.1886 28.062H13.3757C10.629 28.062 8.4024 30.2356 8.4024 32.9169V49.9091C8.4024 52.5904 10.629 54.764 13.3757 54.764H48.1886C50.9353 54.764 53.1619 52.5904 53.1619 49.9091V32.9169C53.1619 30.2356 50.9353 28.062 48.1886 28.062Z" stroke="white" stroke-linecap="round" stroke-linejoin="round"/>
<path d="M17.4269 27.5422V17.8324C17.4269 14.6133 18.7369 11.5262 21.0685 9.25C23.4002 6.97381 26.5626 5.69507 29.8601 5.69507C33.1576 5.69507 36.3201 6.97381 38.6517 9.25C40.9834 11.5262 42.2933 14.6133 42.2933 17.8324V27.5422" stroke="white" stroke-linecap="round" stroke-linejoin="round"/>
</svg>
