<svg width="644" height="84" viewBox="0 0 644 84" fill="none" xmlns="http://www.w3.org/2000/svg">
<rect x="0.5" y="0.5" width="642.732" height="82.5217" rx="3.5" stroke="white"/>
<path d="M61.0853 61.8738V57.2679C61.0853 54.8247 59.9732 52.4816 57.9936 50.754C56.014 49.0265 53.3291 48.0559 50.5295 48.0559H29.4179C26.6183 48.0559 23.9334 49.0265 21.9538 50.754C19.9742 52.4816 18.8621 54.8247 18.8621 57.2679V61.8738" stroke="white" stroke-linecap="round" stroke-linejoin="round"/>
<path d="M39.9737 38.8438C45.8035 38.8438 50.5295 34.7195 50.5295 29.6319C50.5295 24.5443 45.8035 20.4199 39.9737 20.4199C34.1438 20.4199 29.4178 24.5443 29.4178 29.6319C29.4178 34.7195 34.1438 38.8438 39.9737 38.8438Z" stroke="white" stroke-linecap="round" stroke-linejoin="round"/>
</svg>
